<?xml version="1.0" encoding="utf-8"?>
<!-- Layer 2 (front): indicator details — LED dots (left) + label lines (right), one pair per rack unit. -->
<svg width="1024" height="1024" viewBox="0 0 24 24" fill="none" xmlns="http://www.w3.org/2000/svg">
  <!-- top unit -->
  <path d="M10.25 7C10.25 6.58579 10.5858 6.25 11 6.25H18C18.4142 6.25 18.75 6.58579 18.75 7C18.75 7.41421 18.4142 7.75 18 7.75H11C10.5858 7.75 10.25 7.41421 10.25 7Z" fill="#FFFFFF"/>
  <path d="M5.25 7C5.25 6.58579 5.58579 6.25 6 6.25H8C8.41421 6.25 8.75 6.58579 8.75 7C8.75 7.41421 8.41421 7.75 8 7.75H6C5.58579 7.75 5.25 7.41421 5.25 7Z" fill="#FFFFFF"/>
  <!-- bottom unit -->
  <path d="M10.25 17C10.25 16.5858 10.5858 16.25 11 16.25H18C18.4142 16.25 18.75 16.5858 18.75 17C18.75 17.4142 18.4142 17.75 18 17.75H11C10.5858 17.75 10.25 17.4142 10.25 17Z" fill="#FFFFFF"/>
  <path d="M5.25 17C5.25 16.5858 5.58579 16.25 6 16.25H8C8.41421 16.25 8.75 16.5858 8.75 17C8.75 17.4142 8.41421 17.75 8 17.75H6C5.58579 17.75 5.25 17.4142 5.25 17Z" fill="#FFFFFF"/>
</svg>
