<?xml version="1.0" encoding="utf-8"?>
<!-- Layer 1 (back): server chassis bodies — the two stacked rack units. -->
<svg width="1024" height="1024" viewBox="0 0 24 24" fill="none" xmlns="http://www.w3.org/2000/svg">
  <path d="M6 13H18C19.8856 13 20.8284 13 21.4142 13.5858C22 14.1716 22 15.1144 22 17C22 18.8856 22 19.8284 21.4142 20.4142C20.8284 21 19.8856 21 18 21H6C4.11438 21 3.17157 21 2.58579 20.4142C2 19.8284 2 18.8856 2 17C2 15.1144 2 14.1716 2.58579 13.5858C3.17157 13 4.11438 13 6 13Z" fill="#1C274C"/>
  <path d="M6 3H18C19.8856 3 20.8284 3 21.4142 3.58579C22 4.17157 22 5.11438 22 7C22 8.88562 22 9.82843 21.4142 10.4142C20.8284 11 19.8856 11 18 11H6C4.11438 11 3.17157 11 2.58579 10.4142C2 9.82843 2 8.88562 2 7C2 5.11438 2 4.17157 2.58579 3.58579C3.17157 3 4.11438 3 6 3Z" fill="#1C274C"/>
</svg>
